<?xml version="1.0" ?><svg enable-background="new 0 0 40 40" id="Слой_1" version="1.1" viewBox="0 0 40 40" xml:space="preserve" xmlns="http://www.w3.org/2000/svg" xmlns:xlink="http://www.w3.org/1999/xlink"><g><path d="M28.1,26.8c0.4,0.4,0.4,1,0,1.4c-0.2,0.2-0.5,0.3-0.7,0.3s-0.5-0.1-0.7-0.3l-6.8-6.8l-6.8,6.8c-0.2,0.2-0.5,0.3-0.7,0.3   s-0.5-0.1-0.7-0.3c-0.4-0.4-0.4-1,0-1.4l6.8-6.8l-6.8-6.8c-0.4-0.4-0.4-1,0-1.4c0.4-0.4,1-0.4,1.4,0l6.8,6.8l6.8-6.8   c0.4-0.4,1-0.4,1.4,0c0.4,0.4,0.4,1,0,1.4L21.3,20L28.1,26.8z"/></g></svg>